# xmcd CD database file
#
# Track frame offsets:
#	150
#	15325
#	37503
#	56730
#	73655
#	102690
#	120348
#	147213
#	169255
#	196465
#	213213
#	238945
#
# Disc length: 3558 seconds
#
# Revision: 0
# Processed by: cddbd v1.5.1PL0 Copyright (c) Steve Scherf et al.
# Submitted via: CDex 1.51
#
DISCID=a40de40c
DTITLE=姜建華 - 故郷熱情
DYEAR=1900
DGENRE=Classical
TTITLE0=黄昏のワルツ
TTITLE1=インドの歌〜オペラ「サトコ」より
TTITLE2=北の国から
TTITLE3=鳥の歌
TTITLE4=恋のアランフェス
TTITLE5=リベルタンゴ
TTITLE6=レフト・アローン
TTITLE7=慕情
TTITLE8=大河の一滴
TTITLE9=オンブラ・マイ・フ〜オペラ「セルセ」より
TTITLE10=ダッタン人の踊り〜オペラ「イーゴリ公」より
TTITLE11=アイ・リメンバー・クリフォード
EXTD=
EXTT0=
EXTT1=
EXTT2=
EXTT3=
EXTT4=
EXTT5=
EXTT6=
EXTT7=
EXTT8=
EXTT9=
EXTT10=
EXTT11=
PLAYORDER=
